<svg height="2500" viewBox="73 214 5724 8127" width="1756" xmlns="http://www.w3.org/2000/svg"><path d="m3160 8257c0-63 5-96 20-128 11-24 20-54 20-66s5-23 12-25c7-3 13-32 16-74 2-38 8-73 13-78 5-6 9-66 9-134 0-119-1-125-24-143-16-13-25-33-29-66-4-26-9-72-13-100-4-29-13-58-20-64-8-6-14-21-14-34 0-14-17-36-47-62-33-28-52-53-60-82-16-49-17-97-3-114 46-57 60-77 74-111 12-29 13-42 5-52-15-19-38-120-50-219-5-44-11-103-15-131-5-41-2-57 15-85 26-42 26-52 2-103-20-41-20-42 0-124 19-78 19-87 4-137-9-31-24-59-34-65-24-12-31-55-37-242-5-128-3-157 16-232l21-86-20-22c-12-12-21-31-21-42 0-12-23-48-50-80-36-43-53-74-61-112-11-49-10-55 19-115 16-35 33-75 37-89s18-46 31-72c15-30 24-65 24-95 0-43 4-51 36-78 40-34 53-77 54-181 0-39 5-66 14-73 8-7 16-44 20-96 7-82 28-163 45-175 4-3 20-29 34-58 31-62 37-155 12-188-8-10-15-29-15-41 0-13-11-52-25-88-13-37-28-95-31-131-6-57-11-68-42-95-30-26-35-37-34-69 1-21 6-50 12-66 6-15 8-52 4-84-6-56 18-272 37-336 19-61 26-137 18-169-6-20-31-51-69-84-56-49-60-55-60-96 0-23 9-87 20-140 23-112 25-166 8-183-10-10-10-17 0-32 10-17 8-29-14-78-24-51-27-69-27-167s3-116 26-168c19-40 27-74 27-113 0-51-3-58-35-87-19-16-52-40-72-51-43-24-81-91-82-143-1-31 1-33 34-33 19 0 35-3 36-7 0-5 1-84 2-177 3-167 3-168-20-177-30-11-29-23 2-43 14-9 25-21 25-26s-19-28-43-52-56-63-72-86c-65-98-163-155-204-118-24 22-47 20-119-9-132-53-351-20-367 57-6 24-11 29-33 26-24-3-27-8-30-49-5-82 48-120 228-164 75-18 438-50 552-48 93 1 275 31 305 49 12 8 35 14 50 14 20 0 39 11 62 35 18 19 41 35 52 35 10 0 19 4 19 9s16 15 35 21 35 18 35 25 17 28 38 47c94 82 154 190 160 287 5 65 3 72-44 227l-27 92 10 168c9 141 15 182 38 249 24 69 29 103 35 250 7 138 14 193 39 295 42 170 41 211-13 373-77 228-118 612-73 680 9 15 17 36 17 47 0 12 16 74 36 138 79 253 83 338 21 462-20 41-52 100-71 130s-45 80-56 110c-12 30-26 64-31 75-4 11-15 47-24 80s-20 69-25 80-15 36-24 55c-49 112-93 241-105 305-6 30-6 140-1 280 6 163 3 368-8 705-23 688-25 650 27 805l43 130-7 110c-10 174-10 195 9 475 18 273 16 393-9 458-8 20-19 57-25 80-6 25-28 62-49 85-51 58-74 96-81 137-4 26-11 36-28 38-21 3-22 1-22-81zm-1282-582c-21-43-21-46-5-98 24-77 22-90-28-152-50-61-78-107-88-145-25-88-39-187-53-354-10-120-22-211-34-246-18-56-45-170-61-269-10-55-41-135-90-233-37-73-37-111 1-167 17-24 30-51 30-59 0-18-66-138-80-147-15-9-11-136 5-165 24-41 19-94-12-132-15-18-34-37-42-42-30-18-88-76-100-99-12-22-11-27 5-44 39-41 50-60 73-122 12-35 36-84 51-110 16-25 41-65 55-89 39-63 46-129 29-268-7-65-14-174-14-240v-122l-32-16c-50-24-78-52-78-75 0-12 11-52 24-90 23-66 24-79 20-253-3-116-9-199-18-228-8-25-24-90-36-145s-28-119-36-143c-8-23-14-51-14-62 0-31-91-268-116-303-13-17-33-48-44-67s-29-48-40-65c-11-16-25-41-31-55-13-31-5-124 15-165 8-17 26-99 40-183s32-165 41-180c20-35 85-238 85-266 0-12-7-32-16-44-17-24-16-48 7-154 11-52 10-62-11-120-12-35-25-83-27-108-6-56-10-60-96-118-38-25-76-56-84-69-13-20-13-25 4-50 41-59 45-84 23-133-47-103-57-119-85-142-67-57-133-82-224-86-47-2-95-7-106-12-51-22-148-50-224-64-133-25-215-21-356 21-32 9 105-90 150-109 22-9 75-19 118-22 47-4 87-12 103-22 22-15 43-16 167-9 78 4 169 8 202 9 82 0 216-18 246-35 38-21 330-26 377-6 35 15 146 29 316 42 73 6 136 27 136 46 0 4 9 11 20 14 17 5 20 15 20 72 0 73-13 101-85 188-23 28-52 69-63 91-12 23-27 48-34 55-17 18-33 54-47 104-60 221-61 374-2 670 14 69 13 241 0 284-6 20-18 49-26 64-40 77-44 179-14 342 5 28 12 93 16 145 5 90 46 295 66 332 5 10 9 24 9 33 0 15 44 157 59 190 38 83 46 124 46 240 0 83-5 136-16 170-17 52-34 124-43 185-3 19-2 127 3 240 7 162 13 217 28 260 40 111 43 128 43 222 0 71-5 108-19 140-10 24-24 68-30 98-7 30-19 78-26 105-8 28-19 73-25 100-6 28-15 68-21 90-48 203-60 361-34 462 14 55 19 108 46 508 6 88 17 225 25 305s19 204 25 275c5 72 14 175 20 230s14 139 19 186c7 68 15 99 39 141 39 68 42 138 10 193-14 22-20 46-17 65 7 44-9 37-34-15zm3123-462c-8-54-15-114-16-135-1-20-9-48-18-62-19-29-23-135-7-182 10-29 28-156 37-267 5-62 1-76-55-197-25-55-36-93-39-145l-5-70 38-25c56-36 84-97 84-181 0-40 6-78 15-95 23-44 18-83-20-158-42-84-45-129-10-180 14-20 32-51 41-69 9-17 21-35 27-39 6-3 14-83 19-185 4-98 12-188 18-200 6-15 6-33-1-52-17-50 5-394 27-412 18-15 18-57 1-78-8-10-18-66-25-139-10-117-13-128-62-229l-51-106 4-101c2-56 11-121 20-147 9-25 24-91 33-147l16-102-29-33c-16-18-40-62-53-98-14-39-38-80-61-104-35-36-39-47-39-90 0-33-7-60-20-80-27-40-27-109 0-143 17-22 20-34 14-82-4-40-1-78 10-124 21-83 15-117-31-165-72-75-85-97-71-120 7-12 16-21 20-21 6 0 28-22 108-110 39-43 80-105 80-122 0-7-16-23-35-35-49-32-52-59-19-145 30-78 34-129 14-178-9-21-10-48-5-88 4-31 8-100 9-152 1-73 5-101 19-120 22-31 22-59 0-67-30-10-53-35-53-55 0-29-50-74-90-81-19-4-48-14-65-21-121-58-123-59-158-43-79 38-224 24-265-25-41-48-76-59-179-58-54 1-113 1-130 1l-33-1 81-80 81-80 59 12c130 27 325-36 439-142 98-91 141-110 253-110h65l51 57c33 38 52 70 56 94 4 23 21 52 46 78 21 24 39 46 39 50 0 5 12 26 28 47 15 21 34 53 42 69 14 28 21 39 45 68 6 7 21 36 34 65 14 29 30 57 37 63s20 36 29 67c14 46 16 88 12 222-4 158-8 182-43 266-8 17-18 55-24 85-11 57-24 107-46 177-8 23-14 57-14 75 0 42-38 195-55 222-20 31-37 226-32 370 5 139 16 215 41 262 11 23 16 86 21 289 6 277 16 375 44 439 10 22 22 56 26 75s13 44 20 55 18 54 25 96c15 94 0 359-32 544-17 98-22 170-23 397-2 152-6 282-11 289-4 7-13 43-20 79s-19 96-28 134c-13 56-15 106-10 245 5 151 3 197-16 321-13 87-25 229-30 355-7 201-9 215-44 335-20 69-41 139-45 156-4 16-16 43-27 59-22 34-25 145-5 217 13 45 12 47-18 92-18 25-35 46-39 46-5 0-14-44-21-97z" fill="#2ebf00"/><g fill="#4f0"><path d="m3190 8310c5-17 32-74 59-125 107-201 118-269 94-616-18-280-20-375-8-504 7-77 6-85-36-210-44-130-44-130-43-270 0-77 7-342 16-590 10-314 12-518 6-675-5-124-6-250-2-280 8-70 52-206 110-340 9-19 19-44 24-55s16-47 25-80 20-69 24-80c5-11 19-45 31-75 11-30 37-80 56-110 58-93 106-198 111-243 5-50-11-131-61-289-20-64-36-126-36-138 0-11-8-33-17-47-15-23-18-50-18-168 1-198 33-402 91-573 51-152 51-166 7-337-19-77-27-140-33-270-6-147-11-181-35-250-20-58-30-112-36-195-15-213-12-285 17-379 14-47 30-100 35-117 11-36 12-88 2-98-4-3-8-14-9-23-7-47-81-154-146-211-21-19-38-40-38-47s-16-19-35-25-35-16-35-21-9-9-19-9c-11 0-34-16-53-35-23-25-40-35-58-33-14 1-36-5-50-14-27-17-196-48-275-50-87-2-457 31-525 47-112 28-179 56-206 88s-28 64-1 59c11-2 15 2 11 11-2 8 6 44 20 82l25 68-35 41c-32 37-35 46-31 86 3 25 10 67 17 94 12 47 11 50-11 67-24 18-57 31-111 43-31 7-104 81-132 134-18 33-20 58-20 239-1 227-6 213 78 213h39l-6 47c-15 112-25 145-63 199-21 30-45 67-53 82s-18 30-24 33c-14 10-26 85-27 169 0 72 1 77 31 103l32 27-9 93c-16 170-13 206 25 260 24 35 35 65 41 110 12 90 125 362 156 374 8 3 26 25 40 49 19 32 24 51 19 73-9 44-40 103-64 125-12 11-21 23-21 28 0 6-9 21-20 35s-22 41-26 62c-3 20-24 64-45 98-22 34-39 69-39 77s13 24 29 35c48 35 55 67 35 158-9 43-18 116-18 162l-1 85 49 37c27 21 54 45 59 55 11 19-15 146-46 229-29 76-64 195-72 245-10 66-32 143-73 255-34 93-37 108-37 215 0 86 4 126 18 161 9 25 21 75 26 110s19 87 32 116c25 57 22 75-24 182-16 37-18 57-12 131 6 76 4 93-14 133-26 57-28 133-3 160 14 16 17 36 14 131-1 62-7 128-12 147-17 55-22 238-11 324 6 44 15 121 20 172 8 72 16 102 40 145 38 67 42 139 11 190-26 43-25 76 2 105s6 31-23 2c-17-17-19-28-14-62 4-23 11-50 16-59 17-32 9-104-22-183-23-62-33-112-44-220-8-77-21-203-29-280-29-275-45-442-55-600-27-400-32-453-46-508-29-111-15-316 34-522 6-22 15-62 21-90 6-27 17-72 25-100 7-27 19-75 26-105 6-30 20-74 30-98 12-28 19-68 19-110 0-65-4-84-43-192-15-44-21-99-29-270-11-268-8-301 40-475 32-113 21-241-29-350-15-33-59-175-59-190 0-9-4-23-9-33-20-37-61-242-67-332-3-52-12-131-19-175-24-139-27-206-12-277 8-36 22-79 30-95 38-73 47-179 26-288-52-264-60-429-27-600 26-138 48-204 76-234 7-7 22-32 34-55 11-22 40-63 63-91 61-73 85-118 85-158 0-27-5-37-20-42-11-3-20-10-20-14 0-19-63-40-136-46-171-13-281-27-316-42-46-19-279-15-317 6-40 22-178 36-311 32-236-8-345-5-449 12-57 10-106 15-108 13-11-11 39-24 115-29 60-5 91-12 111-27 16-11 57-26 91-34s63-16 64-18c27-57 69-71 183-57 62 8 108 8 167-1 120-17 155-29 221-78 70-52 99-67 143-77 20-4 43-20 60-42 51-66 62-76 78-62 8 6 14 17 14 23 0 7 12 31 28 55 54 85 163 121 362 121h104l41 39c55 53 76 58 113 26 36-30 153-85 181-85 10 0 32-12 49-28 16-15 50-42 76-61l47-33 92 11c111 14 177 5 192-26 33-64 81-83 315-119 25-3 77-21 115-39 39-18 81-36 94-40 12-4 41-25 62-46 55-55 86-54 118 7 30 56 44 65 146 98 54 18 93 37 120 62 72 65 101 84 160 104 89 31 101 48 70 106-31 60-9 88 87 109 102 23 138 35 138 46 0 30-24 48-87 65-61 16-75 24-134 85-65 66-67 68-71 129s-4 61-75 128c-63 60-72 72-76 112-4 34-13 51-36 71-24 19-31 34-31 60 0 37 26 127 41 143 16 18 9 74-16 128-14 29-25 60-25 69 0 19 79 139 92 139 4 0 13 12 19 27 12 32-3 112-33 180-24 55-21 125 10 194 47 108 64 185 66 307l1 84-51 47c-78 70-90 93-74 141 19 59 7 169-30 280-29 83-31 98-21 125 21 51 41 129 41 160 0 17 6 41 13 55s19 45 27 70c7 25 17 50 21 56 5 5 15 35 23 65s21 74 30 98c19 51 21 163 4 228-9 36-25 60-75 108-34 35-63 67-63 72s-15 38-34 73c-25 49-36 84-41 138-6 59-13 83-40 121-19 30-34 66-37 92-3 24-17 61-31 82-47 69-66 121-78 213-10 79-9 95 5 122 9 18 21 32 26 32 14 0 12 58-4 105-37 110-36 103-10 142 27 41 30 69 11 116-18 42-15 290 3 329 17 37 6 71-36 114-35 35-36 37-28 82 5 26 8 128 6 227-2 142-7 197-24 263l-21 83 22 23c12 13 24 42 27 70 5 33 18 62 43 94 88 112 103 143 97 195-3 26-12 55-21 63-40 40-48 75-42 177 6 95 5 101-22 156-28 55-29 60-20 136 8 77 8 80-17 106-26 27-26 32-33 211-7 171-9 186-29 206-12 12-22 28-22 35 0 37-26 94-59 131-51 57-74 95-80 135-4 19-11 36-18 38-9 3-10-4-3-27zm1870-1107c0-33-3-75-7-93-4-24-3-31 5-26 7 4 12 19 12 33s5 43 11 63c10 32 9 42-5 61-16 23-16 22-16-38z"/><path d="m5062 6985c-1-44 9-87 64-275 35-120 37-134 44-335 5-124 17-270 30-355 18-124 21-170 15-320-5-143-3-188 10-245 54-231 65-327 55-485-7-116 1-250 25-380 8-47 22-170 30-275 13-164 13-200 1-263-7-40-18-78-24-85-5-6-13-28-17-47s-16-53-26-75c-28-64-38-162-44-439-5-203-10-266-21-289-26-49-37-126-41-292-5-172 11-367 32-400 17-27 55-180 55-222 0-18 6-52 14-75 22-70 35-120 46-177 6-30 16-68 24-85 33-80 39-110 43-236 5-139-10-233-41-259-7-6-23-34-37-63-13-29-28-58-34-65-24-29-31-40-45-68-8-16-27-48-42-69-16-21-28-42-28-47 0-4-18-26-39-50-25-26-42-55-46-78-4-24-23-56-56-94-45-50-55-57-88-57-77 0-137 29-211 100-64 61-204 135-284 149-78 14-186 14-242 0-44-11-44-12-27-31 33-37 74-50 172-55 68-4 102-10 116-22 66-55 138-87 168-76 8 4 38-3 65-15 56-24 90-66 116-145 27-78 31-82 83-87s107-36 193-106l53-43 18 41c23 51 79 79 159 80 88 0 141 24 181 82 42 62 84 98 114 98 33 0 40 47 14 105-30 68-24 86 40 109 47 17 55 25 72 63 25 58 24 121-1 153-33 42-26 74 25 121 49 45 52 54 31 78-8 9-38 54-68 101-52 84-53 86-53 162v77l-41 31c-47 34-78 90-77 137 1 19-6 38-18 49-10 9-19 25-19 34s-11 39-25 65c-21 38-25 56-20 90 8 52-7 91-74 183-60 83-68 112-48 183 9 34 15 101 15 180 1 115-1 129-24 175l-25 49 28 23c15 12 37 25 48 28 19 7 75 62 75 76 0 4-9 23-21 42-11 19-23 61-26 93s-14 74-24 94c-20 41-49 167-49 216 0 87 40 173 132 284 21 26 38 50 38 53 0 4 9 20 21 35 28 38 49 141 39 187-5 20-16 44-25 54-16 18-16 21-1 44 33 51 22 103-58 268-125 261-148 337-110 369 12 10 15 24 10 59-6 42-3 51 26 90 58 76 59 80 55 167-3 68-8 88-30 122-15 22-27 43-27 47 0 3-19 32-41 65-41 58-42 59-37 129 4 52 11 77 25 93 36 39 45 67 50 161l6 93-38 59c-37 57-38 62-36 138 1 43 6 88 13 99 6 12 8 45 5 79s1 87 9 126c8 37 14 83 14 102 0 36-4 44-77 148-24 34-43 67-43 74s-6 25-14 40c-8 14-19 43-26 65-7 21-41 88-75 148-35 61-65 122-68 135-3 17-5 11-5-15z"/></g></svg>